<?xml version="1.0" standalone="no"?>
<!DOCTYPE svg PUBLIC "-//W3C//DTD SVG 20010904//EN"
 "http://www.w3.org/TR/2001/REC-SVG-20010904/DTD/svg10.dtd">
<svg version="1.0" xmlns="http://www.w3.org/2000/svg"
 width="784.000000pt" height="1220.000000pt" viewBox="0 0 784.000000 1220.000000"
 preserveAspectRatio="xMidYMid meet">
<metadata>
Created by potrace 1.15, written by Peter Selinger 2001-2017
</metadata>
<g transform="translate(0.000000,1220.000000) scale(0.100000,-0.100000)"
fill="#000000" stroke="none">
<path d="M4160 11417 c-5 -5 -175 -28 -210 -30 -8 0 -19 -6 -25 -13 -5 -8 -46
-22 -90 -32 -147 -36 -319 -89 -420 -131 -165 -69 -195 -84 -288 -139 -108
-63 -149 -82 -247 -111 -97 -30 -121 -43 -200 -106 -71 -56 -86 -66 -203 -120
-64 -30 -100 -58 -213 -163 -74 -70 -174 -159 -222 -198 -48 -39 -103 -91
-122 -115 -19 -24 -85 -96 -146 -159 -61 -63 -156 -170 -213 -237 -56 -67
-107 -125 -112 -129 -5 -3 -56 -67 -113 -142 -56 -76 -146 -194 -199 -265 -53
-70 -106 -146 -118 -170 -12 -23 -44 -75 -72 -116 -27 -41 -70 -120 -94 -175
-24 -55 -50 -110 -57 -121 -22 -33 -144 -347 -156 -401 -30 -134 33 -234 210
-332 94 -52 193 -79 360 -97 229 -25 297 -11 396 78 117 106 111 204 -21 334
-92 90 -98 115 -56 242 18 55 57 147 86 205 71 140 330 521 420 617 39 42 114
130 166 195 131 162 380 405 534 521 82 61 352 240 505 333 112 68 250 134
325 155 33 9 103 37 156 61 54 25 156 60 230 79 74 19 166 43 204 55 83 24
288 50 401 50 95 0 319 -32 384 -55 24 -9 59 -24 77 -35 63 -37 213 -172 237
-213 31 -52 73 -197 88 -297 16 -110 -10 -337 -58 -501 -20 -68 -44 -153 -54
-189 -34 -130 -104 -309 -185 -475 -190 -390 -227 -465 -286 -565 -33 -58 -89
-143 -123 -190 -34 -47 -77 -112 -96 -145 -38 -69 -72 -113 -153 -205 -32 -36
-100 -123 -150 -195 -50 -71 -115 -152 -144 -180 -28 -27 -65 -68 -83 -90 -17
-22 -118 -128 -224 -235 -106 -107 -203 -211 -216 -230 -13 -19 -61 -78 -107
-131 -79 -92 -98 -106 -187 -143 -21 -9 -72 -48 -112 -86 -73 -69 -116 -92
-136 -72 -6 6 -19 79 -29 164 -10 84 -27 216 -38 293 -26 176 -40 320 -51 506
-5 80 -16 199 -24 265 -9 65 -16 156 -16 202 0 97 -14 275 -35 452 -8 69 -19
204 -25 300 -5 96 -14 192 -20 212 -18 61 -70 120 -135 153 -55 28 -66 30
-165 29 -145 -2 -339 -29 -369 -52 -57 -42 -66 -66 -65 -175 0 -70 7 -127 22
-182 11 -44 26 -118 32 -165 6 -47 21 -161 35 -255 13 -93 33 -242 45 -330 11
-88 27 -189 35 -225 7 -36 18 -168 24 -295 6 -154 16 -261 29 -325 11 -52 23
-135 26 -185 4 -49 13 -157 21 -240 8 -82 19 -206 25 -275 6 -69 22 -188 35
-265 13 -77 27 -174 30 -215 12 -130 44 -390 54 -429 5 -20 19 -103 31 -186
11 -82 29 -199 40 -260 10 -60 22 -141 25 -178 4 -37 18 -116 31 -175 14 -59
29 -163 34 -232 10 -146 32 -276 66 -398 13 -48 44 -172 69 -277 111 -470 161
-610 276 -782 56 -83 86 -108 186 -153 84 -38 108 -60 98 -90 -4 -11 -69 -86
-145 -166 -77 -79 -179 -195 -227 -257 -100 -126 -141 -170 -201 -210 -27 -18
-54 -50 -77 -91 -23 -41 -80 -109 -164 -194 -85 -86 -141 -153 -165 -195 -19
-35 -43 -70 -52 -78 -45 -36 -210 -275 -263 -379 -93 -183 -101 -311 -30 -458
51 -105 107 -136 344 -193 109 -26 219 -22 310 10 85 30 335 172 430 244 44
34 141 107 215 163 74 56 158 125 185 154 28 28 125 106 217 171 92 66 200
150 240 187 40 37 120 101 178 142 156 110 258 188 326 250 33 30 100 89 150
130 49 41 121 104 159 141 39 36 113 100 165 141 108 86 195 175 210 213 20
52 12 100 -22 142 l-33 38 -63 -7 c-35 -4 -92 -16 -126 -28 -35 -11 -97 -24
-138 -29 -84 -9 -101 -17 -178 -77 -30 -23 -91 -59 -135 -79 -44 -20 -105 -55
-135 -79 -30 -23 -89 -65 -130 -93 -42 -28 -100 -72 -130 -98 -30 -26 -76 -58
-102 -71 -62 -31 -111 -75 -161 -144 -50 -68 -58 -73 -123 -94 -54 -17 -154
-83 -266 -177 -35 -29 -108 -81 -163 -117 -55 -35 -122 -83 -150 -107 -50 -42
-210 -155 -220 -155 -29 0 72 148 174 255 37 39 96 108 131 155 35 48 182 204
335 355 267 265 383 394 472 522 25 35 100 122 167 192 164 173 273 294 328
366 25 33 72 89 103 125 31 36 122 151 201 255 131 172 364 461 526 652 34 40
80 99 102 132 23 32 60 82 83 112 126 162 296 396 328 451 21 35 52 81 70 103
17 22 54 74 80 115 26 41 71 104 100 140 161 202 332 491 467 793 109 242 148
349 173 472 9 44 31 125 50 181 84 245 40 496 -115 655 -92 94 -249 159 -480
201 -54 9 -158 12 -377 10 -261 -2 -312 -5 -375 -22 -163 -43 -320 -91 -450
-137 -75 -26 -140 -45 -144 -41 -10 10 16 48 126 178 105 125 163 206 204 287
14 29 47 78 73 110 56 69 108 153 178 288 71 136 140 260 217 385 75 125 277
589 303 700 10 41 29 99 41 129 44 98 122 443 134 586 5 72 14 148 20 170 21
88 12 187 -29 322 -21 71 -45 145 -54 166 -31 72 -119 186 -223 287 -124 120
-180 150 -429 228 -364 114 -403 124 -540 134 -146 10 -658 22 -665 15z m1750
-4379 c25 -13 54 -38 66 -55 49 -74 42 -237 -17 -415 -21 -64 -39 -124 -39
-133 0 -25 -115 -282 -162 -361 -22 -38 -59 -110 -82 -159 -51 -108 -134 -241
-247 -398 -46 -63 -116 -159 -156 -214 -39 -54 -97 -142 -128 -196 -34 -58
-95 -140 -155 -206 -54 -60 -117 -136 -139 -168 -23 -32 -68 -94 -101 -138
-32 -44 -80 -111 -107 -150 -26 -38 -82 -107 -124 -152 -76 -80 -85 -96 -174
-286 -22 -47 -63 -95 -212 -244 -141 -141 -199 -207 -247 -281 -75 -114 -106
-147 -134 -138 -39 13 -145 154 -206 273 -58 116 -139 400 -156 548 -12 108
-16 129 -58 290 -12 44 -33 181 -47 305 -24 206 -72 486 -111 650 -9 36 -19
112 -24 168 -11 146 3 186 87 243 27 18 82 59 123 90 165 128 329 246 395 287
39 23 95 60 125 81 30 21 134 82 230 136 96 53 245 137 330 185 85 48 182 99
215 113 33 14 98 42 145 62 47 20 135 54 197 75 61 21 175 64 252 95 112 45
170 62 279 80 249 43 317 45 382 13z"/>
</g>
</svg>
